<?xml version="1.0" standalone="no"?>
<!DOCTYPE svg PUBLIC "-//W3C//DTD SVG 1.1//EN" "http://www.w3.org/Graphics/SVG/1.1/DTD/svg11.dtd" >
<svg viewBox="0 -256 2304 1792">
  <g transform="matrix(1 0 0 -1 0 1536)">
   <path fill="currentColor"
d="M0 405l17 128q2 9 9 9t9 -9l20 -128l-20 -126q-2 -9 -9 -9t-9 9zM79 405l23 207q0 9 9 9q8 0 10 -9l26 -207l-26 -203q-2 -9 -10 -9q-9 0 -9 10zM169 405l21 245q2 12 12 12q11 0 11 -12l25 -245l-25 -237q0 -11 -11 -11q-10 0 -12 11zM259 405l21 252q0 13 13 13
q12 0 14 -13l23 -252l-23 -244q-2 -13 -14 -13q-13 0 -13 13zM350 405l20 234q0 6 4.5 10.5t10.5 4.5q14 0 16 -15l21 -234l-21 -246q-2 -16 -16 -16q-6 0 -10.5 4.5t-4.5 11.5zM401 159zM442 405l18 380q2 18 18 18q7 0 12 -5.5t5 -12.5l21 -380l-21 -246q0 -7 -5 -12.5
t-12 -5.5q-16 0 -18 18zM534 403l16 468q2 19 20 19q8 0 13.5 -5.5t5.5 -13.5l19 -468l-19 -244q0 -8 -5.5 -13.5t-13.5 -5.5q-18 0 -20 19zM628 405l16 506q0 9 6.5 15.5t14.5 6.5q9 0 15 -6.5t7 -15.5l18 -506l-18 -242q-2 -21 -22 -21q-19 0 -21 21zM723 405l14 -241
q1 -10 7.5 -16.5t15.5 -6.5q22 0 24 23l16 241l-16 523q-1 10 -7.5 17t-16.5 7q-9 0 -16 -7t-7 -17zM784 164zM817 405l14 510q0 11 7.5 18t17.5 7t17.5 -7t7.5 -18l15 -510l-15 -239q0 -10 -7.5 -17.5t-17.5 -7.5t-17 7t-8 18zM913 404l12 492q1 12 9 20t19 8t18.5 -8
t8.5 -20l14 -492l-14 -236q0 -11 -8 -19t-19 -8t-19 8t-9 19zM1010 405q0 -1 11 -236v-1q0 -10 6 -17q9 -11 23 -11q11 0 20 9q9 7 9 20l1 24l11 211l-12 586q0 16 -13 24q-8 5 -16 5t-16 -5q-13 -8 -13 -24l-1 -6zM1079 169zM1103 404l12 636v3q2 15 12 24q9 7 20 7
q8 0 15 -5q14 -8 16 -26l14 -639l-14 -231q0 -13 -9 -22t-22 -9t-22 9t-10 22l-6 114zM1204 174v899q0 23 28 33q85 34 181 34q195 0 338 -131.5t160 -323.5q53 22 110 22q117 0 200 -83t83 -201q0 -117 -83 -199.5t-200 -82.5h-786q-13 2 -22 11t-9 22z" />
  </g>

</svg>
